<?xml version="1.0" standalone="no"?>
<!DOCTYPE svg PUBLIC "-//W3C//DTD SVG 20010904//EN"
 "http://www.w3.org/TR/2001/REC-SVG-20010904/DTD/svg10.dtd">
<svg version="1.0" xmlns="http://www.w3.org/2000/svg"
 width="400.000000pt" height="400.000000pt" viewBox="0 0 400.000000 400.000000"
 preserveAspectRatio="xMidYMid meet">
<metadata>
Created by potrace 1.13, written by Peter Selinger 2001-2015
</metadata>
<g transform="translate(0.000000,400.000000) scale(0.100000,-0.100000)"
fill="#000000" stroke="none">
<path d="M1944 3774 c-11 -16 -28 -37 -38 -48 -16 -16 -17 -21 -5 -30 10 -8
13 -29 11 -76 -3 -55 0 -68 16 -83 22 -20 72 -14 72 8 0 7 3 21 7 30 5 15 3
16 -15 6 -32 -17 -33 -15 -30 47 3 53 5 57 29 60 26 3 27 1 31 -60 3 -35 1
-64 -4 -66 -4 -2 -8 -10 -8 -18 0 -9 11 -14 34 -14 34 0 35 0 33 43 -2 31 2
42 13 42 18 0 26 -60 11 -79 -15 -18 -4 -26 35 -26 34 0 52 14 34 25 -5 3 -10
24 -10 45 0 45 -29 80 -67 80 -23 0 -24 3 -21 58 l3 57 -45 0 c-27 0 -49 6
-56 14 -9 12 -15 9 -30 -15z m70 -40 c3 -9 -1 -14 -13 -14 -18 0 -35 23 -24
33 8 9 31 -3 37 -19z"/>
<path d="M2689 3771 c-6 -16 -17 -32 -25 -35 -16 -6 -19 -46 -3 -46 7 0 9 -16
4 -50 -13 -96 17 -141 71 -105 25 16 27 16 48 -4 25 -24 47 -26 79 -9 12 6 41
10 64 9 l43 -2 -6 45 c-6 37 -4 46 9 46 8 0 18 -7 21 -16 9 -25 7 -64 -4 -64
-5 0 -10 -7 -10 -15 0 -11 11 -15 39 -15 42 0 64 16 37 26 -9 3 -16 14 -16 23
0 11 9 6 28 -17 29 -35 64 -41 95 -18 27 21 21 39 -10 32 -16 -3 -35 -1 -43 5
-11 7 6 8 60 3 41 -5 97 -8 125 -9 l49 0 -3 50 c-4 66 -27 92 -85 93 -23 1
-55 -5 -70 -13 -15 -8 -38 -12 -51 -9 -16 4 -32 -3 -56 -24 -33 -28 -34 -29
-53 -11 -11 11 -30 19 -42 19 -21 0 -23 5 -26 63 l-3 62 -40 -3 c-47 -4 -67
-18 -39 -28 30 -12 34 -24 34 -111 0 -74 -10 -105 -23 -70 -4 10 -7 10 -18 0
-36 -34 -79 5 -57 52 l12 26 20 -26 c28 -34 55 -20 40 22 -14 41 -70 45 -107
7 -15 -15 -27 -35 -27 -44 0 -10 -6 -23 -14 -29 -22 -18 -29 2 -21 59 6 40 11
50 26 50 25 0 24 26 -1 33 -15 4 -20 14 -20 41 0 43 -17 47 -31 7z m519 -157
l2 -29 -14 25 c-19 31 -20 43 -3 38 6 -3 13 -18 15 -34z m80 -2 c2 -24 -1 -32
-12 -32 -12 0 -16 10 -16 36 0 45 24 42 28 -4z m-148 8 c0 -5 -7 -10 -15 -10
-8 0 -15 5 -15 10 0 6 7 10 15 10 8 0 15 -4 15 -10z"/>
<path d="M1610 3749 c-9 -15 -8 -24 1 -35 10 -12 9 -16 -9 -21 -26 -6 -27 -10
-7 -29 17 -17 21 -104 5 -104 -5 0 -10 -7 -10 -15 0 -22 78 -21 87 1 5 14 17
15 79 9 l73 -7 -6 59 c-3 32 -11 64 -17 71 -12 12 -87 18 -131 10 -17 -3 -20
2 -17 31 5 48 -28 69 -48 30z m80 -114 c6 -16 6 -34 0 -50 -15 -41 -30 -29
-30 25 0 54 15 66 30 25z m88 -14 c2 -12 1 -29 -2 -38 -9 -22 -36 2 -36 32 0
41 32 47 38 6z"/>
<path d="M2370 3764 c0 -4 6 -15 14 -23 8 -9 17 -51 21 -97 6 -70 5 -82 -10
-88 -27 -10 -6 -26 35 -26 44 0 57 12 35 30 -17 14 -20 50 -5 50 15 0 33 -41
32 -73 -1 -28 1 -29 36 -23 20 4 55 9 77 12 46 7 66 21 47 32 -8 6 -12 40 -13
105 -1 74 -5 97 -16 101 -24 9 -35 -4 -31 -36 6 -35 -5 -44 -26 -22 -20 20
-91 16 -92 -6 -2 -37 -8 -31 -13 15 l-6 50 -42 3 c-24 2 -43 0 -43 -4z m202
-91 c24 -21 26 -108 2 -117 -22 -8 -27 -4 -54 48 -22 45 -23 47 -5 66 22 24
33 25 57 3z"/>
<path d="M1156 3714 c-14 -15 -26 -34 -26 -42 0 -11 -10 -6 -31 16 -26 26 -39
32 -74 32 -59 0 -95 -36 -95 -95 0 -59 36 -95 94 -95 44 1 62 11 89 50 17 24
17 24 17 3 0 -35 62 -77 102 -69 18 3 75 7 127 10 78 4 97 9 116 26 48 45 40
130 -15 168 -26 18 -47 22 -104 22 -40 0 -77 -5 -83 -11 -8 -8 -13 -8 -17 0
-14 21 -72 12 -100 -15z m181 -90 c5 -51 2 -62 -16 -78 -21 -19 -21 -19 -21
12 0 38 -15 49 -30 22 -13 -25 -58 -27 -76 -2 -17 22 -17 72 0 95 19 25 53 21
72 -8 20 -31 34 -24 34 18 0 29 1 30 16 15 9 -9 18 -40 21 -74z m102 52 c18
-21 10 -97 -11 -110 -27 -17 -36 3 -31 67 6 58 19 71 42 43z m-377 -31 c9 -19
7 -29 -6 -50 -20 -31 -46 -29 -62 4 -9 17 -9 30 -2 47 15 33 55 32 70 -1z"/>
<path d="M2215 3668 c-32 -18 -44 -40 -45 -79 0 -65 66 -102 105 -59 18 20 17
20 -13 20 -17 0 -34 5 -37 10 -4 6 10 10 34 10 40 0 41 1 41 34 0 25 -7 40
-26 55 -31 24 -32 24 -59 9z m33 -49 c-2 -6 -8 -10 -13 -10 -5 0 -11 4 -13 10
-2 6 4 11 13 11 9 0 15 -5 13 -11z"/>
<path d="M1930 3404 c-160 -24 -312 -76 -429 -146 -34 -21 -65 -38 -67 -38
-13 0 -141 -107 -208 -175 -254 -257 -383 -626 -341 -975 16 -131 24 -169 54
-260 54 -163 164 -342 288 -466 70 -70 194 -174 209 -174 3 0 24 -13 47 -28
39 -26 112 -63 165 -83 56 -22 69 -27 102 -37 220 -65 443 -68 675 -7 328 86
634 343 784 660 18 39 37 78 42 87 5 10 9 27 9 37 0 11 4 22 9 25 4 3 11 20
14 38 4 18 13 65 22 103 20 85 23 358 6 436 -23 106 -33 144 -41 164 -4 11
-13 36 -20 55 -79 230 -304 501 -515 620 -182 103 -283 138 -479 165 -128 18
-209 17 -326 -1z m435 -94 c141 -36 261 -90 385 -173 87 -59 224 -189 260
-247 14 -22 28 -40 32 -40 5 0 8 -5 8 -11 0 -6 13 -29 28 -52 35 -51 92 -170
92 -191 0 -8 4 -17 9 -20 5 -3 11 -18 14 -33 2 -16 11 -53 20 -83 28 -105 40
-259 27 -366 -6 -55 -15 -116 -20 -136 -27 -106 -33 -124 -41 -140 -5 -10 -9
-23 -9 -28 0 -23 -66 -148 -122 -233 -111 -165 -263 -298 -443 -386 -111 -54
-139 -64 -207 -80 -27 -6 -69 -16 -95 -23 -70 -17 -332 -14 -425 6 -111 23
-169 42 -263 87 -312 149 -555 450 -624 774 -6 28 -15 71 -21 97 -22 100 -9
311 29 458 45 176 157 373 287 504 192 192 412 301 689 340 74 11 312 -4 390
-24z"/>
<path d="M1985 3066 c-102 -25 -177 -82 -191 -144 -12 -56 -24 -71 -76 -95
-84 -39 -93 -54 -92 -156 0 -65 7 -107 28 -174 15 -48 32 -85 37 -81 5 3 9 30
9 60 0 97 30 192 72 230 48 43 82 49 170 29 70 -17 90 -17 164 -7 83 12 84 12
141 -17 79 -40 183 -81 203 -81 14 0 18 -14 23 -87 3 -49 9 -99 12 -113 5 -20
3 -18 -10 7 -63 119 -184 146 -269 58 -39 -40 -42 -41 -71 -29 -23 9 -36 9
-59 0 -28 -11 -32 -10 -71 30 -27 27 -54 44 -78 48 -74 14 -150 -27 -182 -97
-8 -18 -20 -40 -27 -51 -11 -15 -11 -19 0 -23 7 -3 19 -21 28 -41 28 -68 78
-102 147 -102 82 0 149 64 164 156 4 24 13 39 28 46 37 17 61 -4 75 -64 20
-85 82 -138 160 -138 64 0 120 37 145 97 7 17 23 41 34 52 12 12 21 32 21 45
0 12 4 36 9 52 5 16 14 56 21 89 6 33 16 68 21 77 16 31 10 60 -31 144 -49
101 -138 196 -223 238 -58 28 -182 56 -247 55 -19 0 -57 -6 -85 -13z m-24
-573 c87 -52 69 -190 -30 -223 -47 -15 -79 -9 -119 25 -54 46 -54 136 0 187
24 22 40 28 75 28 25 0 58 -8 74 -17z m439 -12 c33 -27 35 -32 35 -91 0 -57
-2 -64 -32 -91 -42 -37 -75 -45 -124 -29 -55 18 -83 60 -83 123 0 44 4 53 37
83 31 29 44 34 85 34 38 0 55 -6 82 -29z"/>
<path d="M1781 2136 c-22 -26 41 -120 101 -152 37 -19 134 -16 183 5 38 17 42
17 83 -1 26 -11 68 -18 104 -18 49 0 67 5 102 29 24 17 53 49 67 75 23 43 23
46 6 63 -17 17 -18 16 -41 -10 -35 -41 -76 -45 -132 -12 -37 22 -53 26 -82 20
-47 -8 -87 -8 -134 0 -29 6 -43 2 -74 -19 -51 -34 -85 -33 -127 4 -40 35 -41
35 -56 16z"/>
<path d="M1830 1715 c-21 -22 -23 -35 -26 -137 -3 -121 7 -154 52 -178 19 -11
31 -8 85 20 35 17 80 47 99 66 48 46 87 46 126 1 34 -40 75 -67 124 -84 49
-17 54 -17 84 13 25 26 26 30 26 146 0 105 -3 123 -21 149 -15 22 -28 29 -54
29 -44 0 -109 -36 -152 -84 -48 -53 -83 -56 -126 -12 -47 49 -126 96 -162 96
-21 0 -40 -9 -55 -25z"/>
<path d="M390 1585 c-63 -7 -125 -16 -138 -20 -23 -8 -31 -34 -9 -36 29 -3
154 3 170 7 33 10 17 -15 -30 -47 -88 -60 -111 -100 -75 -132 26 -24 32 -21
32 16 0 34 12 49 77 95 32 23 77 29 88 12 3 -5 33 -10 66 -10 69 0 109 20 109
55 0 28 -29 48 -92 63 -53 14 -44 14 -198 -3z m243 -49 c6 -16 -32 -36 -69
-36 -29 0 -84 26 -84 40 0 16 147 13 153 -4z"/>
<path d="M3497 1494 c-7 -7 24 -65 62 -114 48 -63 54 -82 52 -147 -1 -42 -21
-43 -56 -1 -25 29 -27 37 -21 90 5 44 4 58 -6 58 -7 0 -19 -10 -26 -21 -13
-21 -15 -20 -48 30 -34 50 -44 58 -57 44 -7 -6 34 -84 59 -114 8 -8 14 -34 14
-56 0 -44 7 -57 24 -44 15 12 67 -62 56 -80 -7 -11 -13 -10 -29 5 -12 11 -21
25 -21 32 0 7 -10 16 -22 20 -30 9 -68 -35 -67 -79 1 -36 26 -85 52 -101 25
-16 51 4 55 42 2 23 9 32 25 34 12 2 26 13 33 25 6 12 23 32 37 43 16 13 27
31 27 45 0 13 8 28 18 34 16 9 16 12 0 43 -20 41 -33 108 -19 108 5 0 19 -13
31 -30 12 -16 29 -30 39 -30 29 0 53 34 49 72 -4 40 -22 44 -26 6 -4 -38 -24
-35 -56 7 -30 39 -46 43 -71 18 -16 -16 -19 -14 -52 25 -34 41 -44 48 -56 36z
m-11 -420 c-15 -39 -41 11 -29 56 6 24 7 24 20 -9 8 -18 12 -40 9 -47z"/>
<path d="M450 1402 c-32 -5 -60 -30 -60 -54 0 -19 72 -98 90 -98 6 0 10 -9 10
-19 0 -21 66 -81 88 -81 8 0 12 -6 9 -14 -7 -19 11 -42 48 -61 24 -12 26 -15
9 -15 -11 0 -24 -4 -30 -8 -5 -5 -28 -15 -51 -22 -30 -9 -43 -19 -43 -31 0
-25 18 -33 43 -21 58 27 118 52 124 52 5 0 19 -9 33 -20 47 -37 186 -21 203
24 19 50 -108 83 -206 54 -32 -10 -41 -10 -45 0 -2 7 -10 12 -17 12 -7 0 -15
7 -19 15 -3 10 1 15 12 15 39 0 92 21 92 37 0 14 -10 15 -67 10 -56 -6 -71 -3
-100 14 -43 27 -44 54 -2 63 52 10 79 7 79 -9 0 -20 24 -19 41 1 22 27 -21 54
-87 54 -29 0 -55 -4 -58 -9 -14 -22 -47 -18 -78 10 -36 31 -35 32 35 29 36 -1
49 2 54 16 14 38 -39 65 -107 56z m57 -38 c-3 -3 -12 -4 -19 -1 -8 3 -5 6 6 6
11 1 17 -2 13 -5z m358 -324 c-9 -15 -65 -19 -97 -7 l-33 12 40 5 c48 6 97 1
90 -10z"/>
<path d="M868 1222 c-24 -5 -23 -32 1 -32 11 0 22 4 25 8 8 13 -8 28 -26 24z"/>
<path d="M3306 1078 c-34 -48 -10 -230 36 -283 4 -5 8 -16 8 -25 0 -9 9 -25
20 -35 15 -14 23 -15 34 -6 12 10 11 18 -5 54 -11 23 -24 50 -29 59 -15 27
-12 50 10 78 28 35 27 118 -1 154 -25 32 -53 33 -73 4z m51 -85 c-5 -50 -14
-64 -27 -43 -13 20 -12 57 1 81 17 32 32 11 26 -38z"/>
<path d="M870 972 c-50 -24 -53 -61 -7 -96 19 -14 39 -26 44 -26 6 0 29 -19
52 -42 38 -40 44 -42 95 -42 49 0 58 3 80 29 15 17 26 36 26 43 0 6 11 12 25
12 15 0 25 6 25 14 0 15 -91 33 -110 21 -14 -9 -13 -32 3 -38 20 -7 -6 -42
-36 -45 -37 -5 -67 14 -67 42 0 30 -9 37 -31 26 -13 -8 -28 -4 -56 12 l-38 23
42 6 c70 9 98 50 47 69 -36 14 -54 12 -94 -8z"/>
<path d="M2993 924 c-3 -9 -1 -38 6 -66 6 -27 11 -76 11 -108 0 -56 -1 -58
-45 -94 -25 -21 -49 -34 -55 -31 -5 3 -10 28 -10 54 0 40 3 50 20 54 23 6 27
35 5 43 -32 13 -75 -57 -75 -122 0 -35 -13 -46 -24 -18 -3 9 -6 35 -6 58 0 24
-3 46 -7 49 -12 13 -32 -15 -38 -52 -4 -20 -16 -55 -28 -79 -30 -62 -86 -88
-59 -27 23 50 8 91 -23 65 -22 -18 -21 -136 1 -144 32 -12 66 7 95 52 25 40
29 43 29 21 0 -13 -10 -40 -22 -59 -57 -94 -75 -139 -82 -207 -9 -87 -1 -123
26 -123 54 0 104 111 117 258 11 135 19 151 75 145 36 -4 46 -1 74 25 18 17
40 32 50 34 12 2 17 14 18 43 0 22 9 58 19 80 l19 40 4 -39 c6 -70 52 -88 95
-37 13 16 32 31 42 33 11 1 28 18 38 36 17 28 18 37 6 65 -18 47 -39 67 -70
67 -23 0 -29 -5 -34 -31 -4 -17 -4 -55 0 -85 5 -41 3 -57 -8 -69 -13 -13 -16
-11 -26 17 -6 17 -11 39 -11 49 0 22 -36 44 -45 29 -14 -22 -35 -10 -35 21 0
54 -32 91 -47 53z m235 -72 c2 -24 -1 -32 -12 -32 -12 0 -16 10 -16 36 0 45
24 42 28 -4z m-448 -497 c-35 -116 -60 -149 -60 -78 0 34 37 155 57 186 13 20
15 -65 3 -108z"/>
<path d="M2432 785 c-30 -25 -82 -116 -82 -142 0 -7 -11 -13 -26 -13 -23 0
-25 -3 -19 -22 11 -33 9 -98 -4 -111 -14 -14 -14 -74 -1 -82 11 -7 33 38 52
108 7 26 17 47 23 47 23 0 106 61 125 92 12 20 20 51 20 79 0 72 -34 89 -88
44z m53 -25 c19 -31 -49 -140 -87 -140 -23 0 -23 10 4 68 33 74 65 101 83 72z"/>
<path d="M1655 735 c-16 -9 -48 -34 -70 -56 -28 -26 -50 -39 -69 -39 -23 0
-26 3 -21 20 10 32 -13 53 -51 45 -71 -13 -132 -63 -119 -97 3 -8 17 -21 31
-28 21 -12 30 -11 70 8 84 41 108 23 51 -38 -51 -56 -99 -88 -137 -92 -45 -4
-46 -22 -2 -26 50 -5 93 20 170 98 57 58 75 70 101 70 38 0 74 17 66 31 -4 5
-23 9 -43 9 l-37 1 39 34 c28 25 49 35 72 35 27 0 31 -3 27 -20 -4 -14 0 -20
11 -20 18 0 33 47 19 61 -18 18 -77 20 -108 4z m-205 -76 c0 -16 -31 -38 -52
-39 -25 0 -22 14 5 33 26 19 47 21 47 6z"/>
<path d="M2557 636 c-33 -29 -33 -59 2 -64 18 -3 22 -8 17 -25 -3 -12 -6 -25
-6 -29 0 -4 -14 -15 -31 -24 -30 -15 -32 -15 -55 7 -22 20 -24 21 -30 4 -12
-29 10 -50 55 -53 36 -3 46 1 76 31 38 38 46 79 23 118 -10 17 -10 23 0 26 18
7 14 33 -5 33 -10 0 -31 -11 -46 -24z"/>
<path d="M1954 560 c-31 -12 -85 -82 -82 -105 4 -24 61 -34 84 -14 11 9 18 8
32 -5 21 -19 45 -20 73 -5 25 13 16 29 -17 29 -28 0 -31 20 -8 55 13 20 14 28
4 40 -14 16 -53 19 -86 5z m36 -43 c0 -15 -59 -52 -68 -42 -8 7 43 55 59 55 5
0 9 -6 9 -13z"/>
</g>
</svg>
